<?xml version="1.0" standalone="no"?>
<!DOCTYPE svg PUBLIC "-//W3C//DTD SVG 20010904//EN"
 "http://www.w3.org/TR/2001/REC-SVG-20010904/DTD/svg10.dtd">
<svg version="1.0" xmlns="http://www.w3.org/2000/svg"
 width="924.000000pt" height="924.000000pt" viewBox="0 0 924.000000 924.000000"
 preserveAspectRatio="xMidYMid meet">
<metadata>
Created by potrace 1.14, written by Peter Selinger 2001-2017
</metadata>
<g transform="translate(0.000000,924.000000) scale(0.100000,-0.100000)"
fill="#000000" stroke="none">
<path d="M5799 6678 c-6 -22 -6 -37 -1 -37 4 1 9 0 12 -1 17 -6 40 -7 40 -2
-1 7 -49 45 -51 40z m22 -25 c13 -16 12 -17 -3 -4 -10 7 -18 15 -18 17 0 8 8
3 21 -13z"/>
<path d="M5687 6657 c-1 -4 -12 -9 -24 -10 -12 0 -19 -5 -16 -11 4 -5 -3 -7
-15 -4 -13 4 -20 2 -19 -6 1 -6 -5 -11 -13 -11 -8 -1 -25 -6 -37 -13 -13 -7
-23 -10 -23 -7 0 4 -7 -1 -16 -10 -9 -9 -23 -14 -30 -11 -8 3 -14 2 -14 -3 0
-4 -18 -7 -41 -7 -22 1 -42 -1 -44 -4 -2 -3 -20 -5 -39 -5 -20 1 -36 -1 -36
-5 0 -3 -16 -4 -35 -2 -22 3 -35 0 -35 -7 0 -7 -5 -9 -10 -6 -6 4 -7 11 -4 17
5 7 2 8 -7 3 -18 -12 -89 -12 -113 -2 -13 6 -16 6 -12 -2 4 -6 2 -11 -3 -11
-6 0 -11 5 -11 10 0 7 -6 7 -19 0 -26 -13 -34 -13 -25 2 5 7 3 8 -6 3 -7 -4
-27 -9 -44 -9 -17 -1 -37 -5 -44 -10 -7 -4 -12 -2 -12 4 0 6 -5 8 -12 4 -7 -5
-31 -9 -53 -11 -89 -6 -122 -10 -133 -17 -7 -4 -12 -2 -12 6 0 8 -3 9 -8 3 -9
-13 -28 -18 -74 -18 -20 -1 -35 -4 -33 -8 3 -3 -7 -5 -20 -3 -14 1 -25 -3 -25
-9 0 -7 -5 -5 -10 3 -5 8 -10 10 -10 3 0 -6 -8 -10 -17 -8 -10 1 -23 -1 -29
-6 -6 -5 -28 -10 -50 -11 -21 -2 -42 -7 -45 -11 -4 -5 -18 -10 -33 -10 -14 -1
-26 -6 -26 -10 0 -5 -4 -5 -10 -2 -5 3 -10 1 -10 -4 0 -6 -11 -11 -25 -11 -14
0 -25 -5 -25 -11 0 -6 -6 -9 -14 -6 -8 3 -17 -1 -20 -10 -4 -9 -9 -13 -12 -10
-3 3 -22 -6 -41 -19 -19 -13 -40 -21 -46 -17 -6 3 -7 1 -3 -5 6 -11 -6 -16
-26 -13 -5 0 -8 -6 -8 -14 0 -8 -7 -15 -15 -15 -7 0 -18 -8 -24 -17 -5 -10
-12 -15 -16 -12 -3 4 -24 -11 -45 -33 -22 -21 -40 -36 -40 -32 0 4 -16 -10
-35 -30 -19 -21 -35 -35 -35 -32 0 3 -8 -2 -18 -11 -11 -10 -17 -21 -15 -25 4
-7 -11 -12 -29 -9 -4 0 -4 -7 -1 -17 3 -9 3 -14 -1 -11 -9 8 -107 -91 -100
-102 3 -5 -2 -9 -10 -9 -8 0 -18 -9 -21 -20 -3 -11 -11 -20 -16 -20 -6 0 -7
-5 -4 -10 3 -6 -1 -13 -9 -16 -9 -3 -16 -13 -16 -20 0 -8 -7 -17 -16 -21 -8
-3 -13 -12 -10 -19 3 -8 2 -14 -2 -14 -4 0 -16 -19 -27 -43 -11 -23 -27 -47
-35 -54 -13 -10 -13 -12 -1 -13 11 0 10 -4 -4 -13 -11 -9 -15 -19 -10 -27 5
-8 4 -11 -2 -7 -6 4 -17 -1 -24 -10 -12 -14 -12 -16 1 -8 11 6 10 3 -3 -12 -9
-11 -14 -23 -10 -26 3 -4 2 -7 -4 -7 -9 0 -37 -50 -33 -59 1 -2 -5 -8 -14 -13
-9 -5 -14 -13 -12 -17 3 -4 -4 -18 -15 -29 -11 -12 -17 -22 -14 -22 4 0 -4
-14 -16 -32 -14 -18 -17 -28 -8 -24 9 5 9 3 -2 -6 -17 -14 -44 -59 -42 -69 1
-3 -9 -18 -23 -34 -14 -16 -22 -35 -19 -42 2 -8 1 -11 -5 -8 -5 3 -16 -8 -25
-25 -8 -16 -21 -30 -27 -30 -6 0 -9 -3 -5 -6 3 -3 2 -11 -3 -18 -37 -45 -58
-65 -65 -58 -5 4 -6 2 -2 -4 6 -11 -44 -64 -62 -64 -6 0 -11 -5 -11 -10 0 -6
-11 -15 -25 -22 -13 -6 -21 -16 -18 -22 4 -6 -2 -4 -12 4 -10 8 -16 11 -13 5
5 -9 -15 -36 -27 -35 -3 0 -7 -1 -10 -1 -3 -1 -9 -3 -15 -4 -5 -1 -17 -3 -26
-4 -8 0 -12 -6 -8 -12 4 -8 0 -8 -15 0 -16 9 -21 9 -21 -1 0 -10 -2 -10 -9 1
-6 9 -11 10 -15 2 -4 -6 -12 -11 -17 -11 -6 0 -7 5 -4 10 4 7 -3 9 -20 6 -22
-4 -26 -2 -20 12 5 13 3 14 -6 5 -6 -6 -18 -9 -25 -6 -8 3 -14 2 -14 -1 0 -10
39 -46 50 -46 5 0 10 -4 10 -9 0 -12 58 -71 71 -71 5 0 7 -4 4 -10 -3 -5 -1
-10 5 -10 6 0 8 -5 4 -12 -4 -6 -3 -8 3 -5 13 8 46 -27 36 -38 -5 -4 -3 -6 2
-3 6 3 20 -5 33 -18 12 -13 19 -24 15 -24 -4 0 5 -11 21 -25 16 -14 25 -25 20
-25 -5 0 -1 -5 9 -11 9 -5 17 -17 17 -25 0 -8 5 -12 10 -9 6 3 10 0 10 -8 0
-8 7 -18 16 -21 9 -4 14 -9 11 -12 -2 -3 6 -16 20 -30 13 -13 22 -28 18 -33
-3 -5 4 -12 15 -16 11 -4 18 -10 15 -15 -3 -5 2 -15 10 -23 8 -9 15 -22 15
-29 0 -7 9 -21 20 -31 11 -9 20 -24 20 -32 0 -8 4 -15 9 -15 7 0 18 -24 20
-46 0 -2 6 -11 13 -19 30 -33 35 -42 32 -57 -1 -9 4 -19 12 -22 8 -3 14 -12
14 -21 0 -8 5 -15 10 -15 6 0 10 -9 10 -20 0 -11 5 -20 10 -20 6 0 10 -7 10
-15 0 -8 4 -15 10 -15 5 0 7 -7 4 -15 -4 -8 -1 -15 6 -15 6 0 8 -4 5 -10 -3
-5 -1 -10 4 -10 6 0 11 -9 11 -20 0 -11 4 -20 9 -20 5 0 12 -7 15 -16 3 -8 2
-13 -3 -10 -5 3 4 -19 19 -48 16 -30 26 -57 23 -60 -4 -3 0 -6 7 -6 7 0 11 -3
7 -6 -3 -3 -1 -17 4 -31 5 -14 13 -43 18 -65 8 -34 7 -39 -6 -33 -12 4 -13 2
-6 -7 6 -7 9 -22 6 -33 -2 -11 -6 -31 -9 -45 -3 -14 -6 -35 -6 -47 -1 -13 -6
-23 -11 -23 -4 0 -6 -4 -2 -9 3 -5 -1 -16 -9 -24 -8 -8 -12 -18 -8 -23 4 -5 0
-3 -9 4 -9 6 -19 8 -23 4 -11 -10 -30 -9 -38 3 -5 6 -8 6 -8 0 0 -8 -93 -12
-110 -5 -3 1 -22 2 -42 2 -21 -1 -38 2 -38 6 0 7 -29 13 -77 16 -11 0 -19 4
-16 9 2 4 -1 8 -6 8 -21 3 -26 4 -38 12 -7 5 -13 5 -13 1 0 -4 -8 1 -19 10
-10 9 -22 16 -27 15 -28 -5 -54 2 -48 13 5 8 0 9 -14 6 -12 -4 -22 -2 -22 3 0
5 -3 8 -7 7 -5 -1 -18 3 -29 10 -12 6 -24 9 -27 6 -3 -3 -12 -2 -19 2 -7 5
-22 10 -33 11 -10 2 -22 7 -25 12 -3 4 -13 7 -22 5 -10 -1 -22 5 -28 14 -6 11
-9 13 -10 4 0 -9 -7 -11 -22 -6 -21 6 -38 10 -88 18 -9 1 -22 6 -29 11 -10 6
-12 4 -6 -5 6 -10 4 -11 -6 -4 -19 12 -36 15 -96 17 -29 1 -53 4 -53 7 0 3
-17 6 -37 5 -33 0 -38 3 -35 20 2 15 -3 21 -17 21 -11 0 -18 -3 -16 -6 6 -10
-84 -4 -93 5 -4 4 -1 5 6 1 6 -4 12 -3 12 1 0 5 14 8 30 7 17 -1 32 2 35 7 3
4 11 6 18 3 7 -2 17 4 24 15 11 18 10 19 -16 11 -17 -5 -42 -3 -64 5 -21 7
-39 9 -42 5 -6 -9 -24 -8 -42 3 -6 4 -13 1 -16 -5 -3 -10 -8 -10 -21 1 -15 12
-17 12 -14 0 2 -8 -3 -13 -11 -11 -7 1 -19 -2 -25 -8 -7 -5 -16 -7 -19 -3 -4
3 -7 1 -7 -5 0 -6 -7 -9 -15 -6 -8 4 -15 1 -15 -6 0 -7 -7 -10 -15 -6 -8 3
-15 2 -15 -2 0 -5 -13 -7 -30 -6 -16 1 -28 -2 -25 -6 4 -7 -6 -11 -57 -25 -5
-2 -10 -4 -13 -5 -3 -1 -9 -3 -14 -4 -5 0 -12 -4 -16 -8 -4 -3 -18 -4 -31 -2
-13 2 -24 0 -24 -6 0 -5 -3 -9 -8 -8 -13 2 -42 -14 -37 -22 3 -4 -2 -13 -10
-20 -8 -7 -15 -9 -15 -6 0 4 -7 0 -16 -8 -16 -17 -34 -21 -34 -8 0 4 -9 8 -20
9 -11 1 -20 -3 -20 -8 0 -6 5 -7 10 -4 14 9 12 -24 -2 -38 -7 -7 -22 -12 -33
-12 -13 0 -19 -6 -17 -18 2 -9 -2 -17 -8 -17 -6 0 -8 -4 -5 -10 3 -5 -1 -10
-10 -10 -9 0 -13 -5 -10 -10 3 -5 0 -10 -8 -10 -14 0 -63 -50 -49 -50 4 0 -1
-5 -11 -11 -9 -6 -15 -14 -12 -20 4 -5 1 -9 -5 -9 -6 0 -8 -5 -5 -11 5 -6 12
-4 22 8 9 11 12 12 8 3 -4 -8 1 -6 9 4 16 20 28 24 76 28 14 1 31 6 39 12 12
9 13 8 6 -4 -7 -12 -6 -13 7 -3 8 7 18 10 21 6 4 -3 7 -1 7 4 0 6 8 10 18 9 9
-2 33 3 54 10 20 7 39 10 41 7 3 -3 3 -23 1 -46 l-5 -40 23 17 c13 9 33 21 46
26 12 5 22 14 22 19 0 5 9 8 19 6 10 -2 28 5 38 15 21 19 69 38 60 23 -3 -5
10 -8 31 -6 20 1 39 -3 44 -10 4 -6 8 -7 8 -2 0 6 -12 23 -26 38 -14 16 -27
34 -28 40 -1 7 -5 18 -9 25 -5 6 -4 12 2 12 5 0 17 8 26 17 9 9 32 16 51 16
19 0 34 5 34 11 0 6 5 4 10 -4 7 -11 10 -11 10 -2 0 7 5 10 10 7 6 -3 28 -7
50 -7 27 0 38 -4 33 -12 -4 -6 1 -5 10 3 9 7 17 9 17 4 0 -5 10 -9 23 -10 76
-4 97 -7 97 -16 0 -6 3 -7 6 -4 4 3 16 2 27 -4 15 -9 18 -8 11 3 -6 11 -5 11
9 -1 9 -7 17 -10 17 -5 0 4 5 3 11 -3 6 -6 18 -9 25 -6 8 3 14 1 14 -5 0 -5
11 -8 25 -7 14 2 25 0 25 -5 0 -7 72 -24 98 -23 6 0 12 -3 12 -9 0 -5 5 -6 10
-3 6 3 10 2 10 -4 0 -6 6 -8 14 -5 8 3 17 0 21 -5 3 -6 10 -9 15 -6 4 3 28 -4
53 -14 25 -11 48 -17 51 -14 3 4 6 1 6 -5 0 -7 3 -11 8 -11 18 4 72 -15 72
-24 0 -6 3 -7 6 -4 4 3 15 2 26 -4 11 -6 29 -12 41 -15 12 -2 23 -8 25 -14 2
-6 8 -8 13 -4 5 3 9 0 9 -7 0 -7 3 -9 7 -6 3 4 12 -1 20 -11 9 -10 12 -11 7
-2 -6 11 -2 10 13 -3 11 -9 23 -14 26 -10 4 3 7 1 7 -6 0 -8 7 -11 15 -7 10 3
15 -1 15 -11 0 -9 3 -13 7 -10 3 4 12 2 20 -4 7 -6 13 -8 13 -3 0 5 4 3 8 -4
5 -7 18 -14 30 -17 12 -2 29 -11 38 -20 9 -8 19 -13 24 -10 4 3 11 -2 14 -11
3 -8 10 -13 14 -10 5 3 15 -3 24 -12 8 -9 25 -24 36 -32 12 -8 22 -22 22 -31
0 -9 10 -24 23 -33 12 -9 16 -14 8 -10 -10 5 -12 3 -5 -7 4 -8 9 -20 10 -27 2
-8 9 -21 18 -30 8 -10 15 -20 15 -24 1 -5 3 -7 6 -5 3 1 14 -12 24 -29 13 -22
26 -30 42 -29 13 1 36 -2 52 -6 15 -4 27 -5 27 -1 0 4 31 7 70 7 40 0 70 -4
70 -10 0 -5 5 -3 10 5 5 8 10 11 10 5 0 -5 20 -10 45 -9 26 0 45 -4 45 -10 0
-7 3 -8 8 -1 10 14 65 15 74 1 6 -8 8 -8 8 1 0 8 11 11 30 9 18 -2 27 1 23 7
-4 6 0 8 9 4 9 -3 21 0 28 6 10 9 11 9 5 -3 -6 -11 -3 -10 12 3 11 9 23 14 26
10 4 -3 7 -1 7 6 0 7 5 9 10 6 6 -3 10 -2 10 3 0 6 14 15 31 21 17 6 28 15 24
21 -3 5 2 10 12 10 15 0 16 2 3 10 -13 8 -12 10 3 10 10 0 16 4 12 10 -3 5 2
18 12 30 10 11 18 24 19 28 4 30 30 102 37 102 5 0 4 7 -3 15 -12 14 -7 20 14
16 5 -1 3 5 -4 14 -12 14 -11 18 1 26 11 7 11 9 0 9 -11 0 -11 3 -1 15 7 8 9
15 5 15 -4 0 -1 8 6 17 12 15 12 16 -1 8 -13 -8 -13 -7 -1 8 7 9 11 17 7 17
-4 0 0 13 9 30 8 16 15 33 15 37 0 5 7 16 15 26 8 9 11 17 7 17 -4 0 2 7 12
15 11 8 16 15 12 15 -5 0 9 17 30 37 21 20 38 40 36 45 -1 4 5 8 13 8 8 0 15
5 15 11 0 5 4 8 9 5 5 -4 11 -1 13 6 2 6 11 13 19 14 84 19 99 21 99 10 0 -7
4 -6 9 2 6 10 10 10 21 -3 7 -9 19 -14 26 -11 7 3 16 1 19 -5 4 -5 10 -7 15
-4 9 5 26 -33 22 -48 -1 -5 2 -6 8 -2 12 7 51 -55 43 -68 -3 -6 -1 -7 5 -3 6
3 16 -7 24 -24 7 -16 17 -30 21 -30 5 0 6 -4 3 -8 -3 -5 10 -25 29 -45 18 -19
31 -38 28 -41 -4 -3 4 -6 16 -6 15 0 20 -4 15 -12 -4 -7 -4 -10 1 -6 4 4 15 2
23 -5 13 -10 14 -9 7 3 -7 12 -6 13 6 4 8 -6 27 -9 44 -8 16 2 33 -2 37 -9 5
-8 8 -5 8 8 0 15 2 17 9 6 5 -7 11 -9 14 -4 9 14 62 9 79 -7 8 -8 13 -27 13
-42 -1 -16 2 -28 8 -28 5 0 6 -8 2 -17 -12 -31 -14 -54 -4 -48 7 5 15 -76 10
-107 0 -5 4 -8 9 -8 6 0 10 -7 10 -16 0 -8 4 -13 9 -9 5 3 12 -4 16 -15 4 -12
11 -18 18 -14 9 5 9 4 0 -6 -9 -10 -7 -17 10 -30 25 -20 57 -11 57 17 0 12 3
13 13 5 10 -9 20 -7 38 5 33 23 40 36 26 45 -9 6 -9 8 0 8 15 0 13 21 -2 32
-6 5 -4 8 4 8 11 0 11 4 -2 18 -10 10 -14 22 -10 27 5 4 2 5 -4 1 -7 -4 -13
-2 -13 4 0 6 -4 9 -9 6 -5 -3 -8 5 -8 19 0 13 -8 31 -17 40 -9 9 -16 21 -16
26 0 5 -11 9 -24 9 -21 0 -40 24 -39 50 0 3 -3 14 -7 25 -6 16 -2 23 16 32 16
7 24 8 24 1 0 -6 6 -5 15 2 12 10 15 10 15 0 0 -10 3 -10 16 0 8 8 14 9 12 4
-2 -5 0 -10 5 -11 15 -5 35 -28 30 -35 -2 -5 3 -8 11 -8 9 0 16 -4 16 -10 0
-5 7 -10 16 -10 8 0 13 -4 10 -8 -3 -5 6 -16 19 -26 14 -10 22 -22 19 -27 -3
-5 0 -9 5 -9 6 0 11 -7 11 -15 0 -8 5 -15 10 -15 6 0 10 -9 10 -20 0 -11 7
-20 15 -20 8 0 15 -4 15 -10 0 -5 11 -10 25 -10 14 0 25 -5 25 -11 0 -5 -6 -7
-12 -4 -7 4 -5 0 4 -8 10 -8 15 -17 12 -20 -8 -7 17 -33 31 -32 6 0 16 4 24 9
10 6 12 5 7 -2 -4 -7 -1 -12 8 -12 8 0 25 -10 36 -22 18 -19 20 -20 14 -4 -6
16 -5 17 16 6 15 -8 20 -8 16 -1 -4 6 -2 11 4 11 6 0 9 4 5 9 -3 6 4 15 15 21
11 6 20 17 20 25 0 8 6 15 13 15 7 0 8 3 2 8 -5 4 -12 29 -14 57 -3 50 -23 79
-48 70 -7 -2 -13 1 -13 7 0 6 -3 9 -6 5 -3 -3 -17 5 -30 19 -29 28 -53 35
-114 31 -25 -2 -51 1 -59 7 -12 9 -13 8 -6 -3 5 -8 -9 -2 -31 14 -42 31 -114
105 -114 118 0 4 -9 7 -21 7 -13 0 -18 4 -13 13 5 8 2 8 -9 -2 -9 -7 -17 -10
-17 -6 0 4 -8 1 -17 -6 -11 -10 -14 -10 -9 -1 4 7 1 12 -8 12 -9 0 -16 -6 -16
-12 0 -9 -3 -9 -8 -2 -4 6 -20 10 -35 9 -15 -1 -30 2 -33 6 -2 5 -11 6 -19 3
-25 -10 -51 13 -53 47 -2 18 -6 36 -10 39 -4 3 -8 12 -7 19 0 15 -18 40 -62
88 -13 13 -23 28 -23 32 0 5 -7 11 -15 15 -8 3 -15 11 -15 18 0 9 3 8 10 -2 9
-13 10 -13 10 0 0 9 3 11 8 5 4 -6 28 -11 55 -10 26 0 47 -2 47 -5 0 -3 36 -5
80 -5 47 0 80 -4 80 -10 0 -5 5 -3 10 5 5 8 10 10 10 4 0 -12 49 -12 68 0 6 3
13 2 16 -3 3 -5 34 -9 69 -8 34 0 68 -2 75 -7 6 -4 12 -3 12 3 0 5 18 8 40 6
22 -2 43 1 46 7 4 6 9 6 14 -2 5 -8 13 -9 21 -4 19 12 32 12 46 2 6 -5 14 -5
18 2 3 6 11 8 16 5 5 -4 9 -2 9 3 0 4 16 7 35 6 19 -2 37 1 40 6 4 7 13 6 26
0 12 -7 19 -7 19 -1 0 7 9 7 26 1 18 -7 23 -7 18 1 -5 8 1 10 18 7 13 -2 29 1
36 8 9 10 19 11 38 4 14 -6 23 -6 20 -1 -3 5 3 11 14 14 10 3 21 0 24 -7 3 -8
5 -7 5 1 1 7 8 10 18 6 10 -4 14 -2 10 4 -4 6 3 9 18 7 14 -1 25 2 25 7 0 6 5
7 10 4 6 -4 18 -1 27 7 14 11 16 11 8 -2 -8 -13 -6 -13 8 -2 9 8 21 11 27 7 5
-3 10 -2 10 2 0 5 8 9 18 10 9 1 31 7 47 14 17 7 35 13 41 14 6 0 20 7 30 15
13 11 16 11 10 1 -6 -9 -1 -8 17 3 13 9 35 19 48 21 13 3 25 9 27 15 2 6 8 8
13 4 5 -3 9 0 9 6 0 6 5 8 10 5 6 -3 10 -1 10 4 0 6 3 10 8 9 4 -1 21 4 37 11
17 7 32 12 35 12 3 0 9 7 13 15 5 8 14 11 20 8 7 -4 9 -4 5 1 -7 7 52 45 95
61 9 3 17 13 17 21 0 8 5 11 10 8 6 -3 10 -1 10 6 0 7 3 9 6 6 4 -4 15 3 25
15 11 11 19 18 19 15 0 -3 12 5 26 18 15 14 33 25 41 25 8 0 12 3 10 8 -5 9
30 42 37 35 3 -4 6 0 6 7 0 7 3 10 7 7 3 -4 13 2 21 14 10 15 11 24 3 32 -8 8
-11 8 -11 -1 0 -7 -7 -12 -15 -12 -9 0 -21 -11 -27 -25 -6 -14 -17 -25 -25
-25 -7 0 -16 -7 -19 -15 -4 -8 -10 -13 -14 -10 -4 3 -11 -2 -14 -11 -3 -8 -10
-12 -16 -9 -5 3 -10 1 -10 -5 0 -6 -4 -8 -10 -5 -5 3 -10 0 -10 -7 0 -12 -40
-45 -48 -39 -2 1 -12 -8 -23 -20 -10 -12 -19 -19 -19 -15 0 4 -7 0 -16 -8 -8
-9 -20 -14 -25 -11 -5 4 -9 1 -9 -4 0 -6 -7 -11 -15 -11 -8 0 -15 -4 -15 -10
0 -5 -11 -12 -25 -16 -14 -3 -22 -11 -18 -17 4 -6 -2 -8 -15 -5 -16 5 -22 2
-22 -10 0 -15 -2 -15 -10 -2 -8 12 -10 12 -16 -3 -3 -9 -10 -15 -14 -12 -5 3
-11 1 -15 -5 -4 -6 -10 -8 -15 -5 -4 3 -10 -1 -13 -9 -4 -9 -14 -12 -26 -9
-13 3 -21 1 -21 -6 0 -7 -5 -9 -10 -6 -6 4 -21 0 -33 -8 -12 -7 -33 -13 -45
-12 -13 1 -26 -4 -29 -12 -3 -7 -10 -10 -15 -7 -6 4 -14 0 -19 -7 -7 -12 -9
-11 -9 1 0 11 -2 12 -8 3 -4 -7 -19 -15 -32 -17 -14 -2 -25 -5 -25 -6 0 -3
-39 -10 -60 -12 -11 -1 -26 -6 -32 -11 -7 -5 -20 -7 -28 -3 -8 3 -15 0 -15 -7
0 -8 -3 -8 -9 2 -5 8 -11 9 -15 3 -3 -6 -18 -9 -31 -6 -15 3 -25 0 -25 -8 0
-9 -3 -9 -11 -1 -13 13 -42 5 -33 -9 4 -6 -4 -5 -16 2 -18 10 -24 9 -31 -1 -7
-11 -9 -11 -9 1 0 9 -3 11 -8 5 -4 -5 -42 -10 -84 -10 -43 0 -78 -2 -78 -6 0
-3 -7 -6 -15 -6 -8 0 -15 3 -15 7 0 8 -49 5 -57 -4 -3 -3 -14 -1 -24 5 -14 7
-19 6 -19 -3 0 -10 -2 -10 -9 1 -6 10 -10 10 -16 1 -6 -9 -10 -9 -16 1 -7 11
-9 11 -9 1 0 -8 -5 -10 -12 -5 -18 11 -42 10 -50 -2 -5 -6 -11 -6 -16 2 -4 7
-25 10 -50 8 -23 -2 -40 0 -38 4 3 4 -4 7 -15 7 -10 0 -19 -4 -19 -7 0 -4 -13
-4 -29 1 -16 4 -32 6 -35 3 -3 -3 -11 -1 -19 5 -7 7 -18 7 -27 2 -8 -5 -21 -5
-31 0 -9 5 -38 10 -65 12 -27 2 -52 7 -56 13 -5 6 -12 4 -18 -5 -6 -9 -10 -10
-10 -3 0 6 -8 12 -17 12 -24 0 -66 8 -93 16 -17 6 -21 4 -15 -6 5 -8 -1 -6
-12 4 -16 14 -22 15 -26 5 -4 -11 -6 -11 -6 0 -1 7 -5 10 -11 7 -5 -3 -10 -1
-10 5 0 6 -4 9 -9 5 -5 -3 -12 -1 -16 4 -3 6 -12 8 -20 4 -8 -3 -15 0 -15 5 0
6 -12 9 -26 6 -14 -3 -23 -1 -21 3 3 4 -26 8 -64 7 -44 0 -69 3 -69 10 0 7 -3
7 -8 1 -10 -15 -55 -18 -46 -3 5 7 3 8 -7 2 -17 -10 -20 -11 -60 -13 -16 0
-28 -5 -25 -10 3 -4 -2 -8 -12 -8 -35 0 -43 -3 -36 -14 5 -8 2 -9 -11 -1 -15
8 -23 5 -38 -12 -10 -11 -15 -14 -11 -6 5 10 0 9 -14 -4 -12 -11 -22 -16 -22
-11 0 4 -6 2 -13 -4 -8 -6 -18 -7 -22 -3 -5 4 -5 1 -1 -5 6 -12 0 -15 -20 -12
-4 0 -10 -3 -13 -8 -3 -5 -26 -17 -51 -28 -25 -11 -49 -25 -53 -32 -5 -8 -12
-11 -18 -8 -5 4 -9 1 -9 -5 0 -6 -4 -8 -10 -5 -5 3 -10 1 -10 -4 0 -6 -7 -11
-15 -11 -8 0 -15 -5 -15 -11 0 -5 -4 -7 -10 -4 -5 3 -10 1 -10 -4 0 -6 -6 -11
-14 -11 -8 0 -22 -10 -31 -22 -15 -21 -16 -21 -13 -3 2 10 18 29 35 41 18 12
30 24 27 27 -3 3 4 8 16 12 21 7 51 29 88 65 9 8 18 15 21 15 3 0 5 4 3 8 -1
5 2 6 7 3 11 -7 63 19 54 27 -3 4 1 7 10 7 9 0 17 5 17 12 0 6 3 8 7 5 8 -9
32 24 33 46 0 9 5 17 12 17 6 0 9 3 5 6 -3 4 0 13 8 21 8 8 15 23 15 34 0 11
5 17 10 14 6 -3 10 0 10 8 0 7 10 24 23 37 12 14 20 25 17 25 -2 0 2 10 11 22
9 13 19 20 24 15 4 -4 5 1 2 11 -4 11 -1 20 8 23 8 3 17 14 20 25 4 11 11 17
16 14 5 -4 9 -1 9 4 0 6 8 20 18 30 44 49 87 105 85 112 -2 5 4 6 12 3 10 -4
15 0 15 10 0 9 7 19 15 22 8 4 15 13 15 21 0 8 4 12 9 9 5 -3 15 2 22 11 12
14 12 16 -1 8 -8 -4 -4 3 10 17 14 13 27 24 30 23 3 -1 13 6 23 17 9 10 15 18
12 18 -3 0 4 9 15 20 12 12 25 18 31 15 5 -4 8 -1 7 6 -2 7 7 18 19 24 13 7
20 15 16 18 -3 4 -2 7 4 7 5 0 22 11 37 25 15 14 32 25 37 25 6 0 7 5 4 10 -3
6 3 10 13 10 22 0 46 23 35 33 -3 4 1 7 9 7 8 0 27 11 42 25 15 14 32 22 38
19 6 -4 8 -2 4 4 -3 6 7 19 24 28 16 10 30 22 30 27 0 4 5 5 10 2 6 -3 10 -2
10 3 0 5 16 17 35 28 19 10 35 22 35 27 0 4 4 6 9 2 6 -3 14 2 19 11 5 9 13
17 18 17 5 1 8 5 7 9 -2 4 4 5 12 2 8 -4 15 -1 15 6 0 6 4 9 9 6 5 -3 11 1 15
9 3 8 12 15 21 15 8 0 15 5 15 10 0 6 5 10 11 10 6 0 25 11 41 25 16 14 35 22
40 19 7 -4 8 -2 4 4 -4 7 -1 12 8 12 9 0 16 4 16 9 0 5 9 13 21 16 12 4 30 14
40 24 11 9 24 17 29 17 6 1 15 2 21 3 5 0 7 6 3 13 -4 6 -3 8 4 4 6 -3 21 4
33 16 12 13 19 16 15 8 -4 -8 0 -6 8 4 9 11 16 16 16 12 0 -4 13 2 29 13 15
11 31 18 35 14 3 -3 6 -2 6 4 0 10 49 38 63 35 4 -1 7 3 7 8 0 6 7 10 16 10 9
0 12 5 8 11 -4 7 -1 10 7 7 8 -3 22 4 32 15 12 14 17 16 17 6 1 -12 3 -11 13
1 7 8 18 16 26 18 7 1 20 9 28 17 8 9 19 13 24 10 5 -4 9 -1 9 5 0 7 7 9 16 6
8 -3 13 -2 10 2 -3 4 4 14 16 21 16 10 19 10 12 0 -4 -7 7 -3 24 10 18 12 36
19 42 16 5 -3 10 -1 10 5 0 6 5 8 10 5 6 -3 10 -2 10 2 0 11 60 34 71 27 5 -3
9 0 9 6 0 6 4 9 9 6 5 -4 11 -1 13 4 2 6 10 12 18 14 8 2 28 8 43 14 16 7 33
12 38 12 5 0 9 5 9 11 0 8 5 7 16 -1 12 -11 15 -11 12 -1 -3 12 15 20 50 23 6
1 12 6 12 11 0 5 7 4 15 -3 12 -10 16 -9 21 4 3 9 10 13 15 10 5 -3 9 1 9 8 0
9 3 9 10 -2 7 -11 10 -11 10 -2 0 7 5 10 10 7 6 -3 10 -2 10 4 0 5 10 8 22 6
12 -3 27 0 33 5 6 5 22 12 36 14 13 3 24 5 24 6 0 1 11 3 25 6 14 2 32 7 40
11 16 7 32 11 65 16 11 2 31 9 45 17 23 12 24 12 11 -4 -12 -14 -12 -16 3 -10
9 3 16 9 16 13 0 4 13 7 30 6 16 -1 27 1 25 5 -2 4 10 7 27 8 17 0 35 5 41 11
6 6 18 6 34 0 17 -6 22 -6 17 2 -5 8 3 10 25 7 17 -2 31 -2 31 2 0 3 15 5 33
5 17 -1 35 4 39 9 5 7 8 6 8 -3 0 -10 3 -11 14 -2 10 8 16 9 21 1 3 -6 12 -7
18 -3 17 11 31 10 39 -2 5 -6 8 -6 8 2 0 6 9 10 20 8 11 -2 20 2 21 8 0 7 4 3
9 -8 5 -11 9 -15 9 -8 1 7 21 12 56 12 39 0 54 -4 49 -12 -3 -7 0 -5 8 4 9 11
22 13 45 8 20 -4 34 -2 37 5 3 8 5 8 5 -1 1 -6 10 -9 22 -6 12 4 25 0 30 -8 7
-11 9 -11 9 -1 0 8 5 10 13 5 6 -4 19 -8 27 -8 8 0 21 -4 28 -8 6 -5 12 -4 12
1 0 11 48 3 56 -10 3 -5 12 -4 20 3 12 10 15 10 12 -2 -2 -10 5 -13 25 -12 15
1 27 -3 27 -9 0 -6 9 -8 20 -5 11 3 20 1 20 -3 0 -5 8 -7 18 -6 9 2 22 -4 29
-13 8 -10 12 -11 13 -4 0 7 7 10 15 7 8 -4 12 -11 8 -17 -4 -6 0 -8 10 -4 9 3
19 2 22 -4 4 -5 11 -7 16 -3 5 3 16 0 24 -6 8 -7 22 -10 30 -6 8 3 15 1 15 -3
0 -5 7 -12 16 -15 10 -4 13 -2 8 6 -5 7 -3 8 7 2 8 -4 20 -9 28 -11 8 -1 18
-8 22 -15 7 -10 9 -10 9 2 0 9 3 11 8 5 9 -13 42 -15 42 -3 0 7 5 7 13 0 11
-9 33 -12 120 -13 11 0 15 -5 10 -12 -4 -7 0 -6 10 2 14 11 17 11 17 0 0 -11
2 -11 10 1 6 10 10 11 10 3 0 -7 7 -13 15 -13 8 0 15 -4 15 -10 0 -5 6 -10 13
-10 7 0 18 -9 25 -20 13 -21 32 -27 32 -9 0 5 -4 7 -10 4 -5 -3 -10 0 -10 8 0
15 -44 57 -60 57 -6 0 -10 5 -10 12 0 6 -3 8 -7 5 -3 -4 -13 -1 -21 6 -13 10
-14 9 -7 -3 8 -13 7 -13 -9 -1 -10 8 -34 15 -54 15 -20 1 -43 5 -49 9 -8 5
-13 3 -13 -4 0 -7 -9 -5 -26 6 -15 9 -24 12 -20 6 6 -10 -3 -9 -79 4 -11 2
-22 4 -25 5 -3 1 -8 2 -12 1 -5 0 -8 3 -8 9 0 5 -6 10 -14 10 -7 0 -19 6 -26
14 -6 8 -18 12 -27 9 -10 -4 -23 3 -35 18 -11 13 -17 19 -14 12 3 -6 -20 2
-51 19 -32 16 -57 33 -55 39 1 5 -1 8 -5 8 -5 -1 -11 0 -15 1 -13 4 -27 7 -38
9 -5 0 -10 8 -10 17 0 8 -4 12 -10 9 -5 -3 -10 -1 -10 5 0 6 -4 8 -10 5 -5 -3
-10 -2 -10 3 0 5 -13 15 -30 22 -16 7 -30 17 -30 22 0 5 -4 6 -10 3 -5 -3 -10
-1 -10 5 0 6 -4 8 -10 5 -5 -3 -10 -1 -10 5 0 6 -5 8 -10 5 -6 -3 -13 0 -16 9
-3 8 -12 12 -20 9 -7 -3 -16 2 -20 10 -3 9 -14 14 -25 12 -12 -3 -19 2 -19 12
0 13 -2 14 -17 2 -9 -8 -14 -9 -10 -3 3 6 -9 16 -29 23 -18 7 -34 16 -34 21 0
4 -11 7 -24 6 -18 -2 -23 1 -18 12 4 12 0 14 -16 10 -12 -4 -22 -2 -22 4 0 5
-4 6 -10 3 -5 -3 -10 -2 -10 3 0 6 -7 13 -16 16 -8 3 -12 2 -9 -4 3 -6 -1 -7
-9 -4 -9 3 -16 10 -16 15 0 5 -9 9 -20 9 -11 0 -20 5 -20 11 0 5 -5 7 -12 3
-6 -4 -17 1 -25 11 -9 14 -13 15 -13 4 0 -12 -2 -12 -10 1 -5 8 -10 11 -10 6
0 -5 -7 -3 -15 4 -8 6 -19 9 -25 5 -5 -3 -10 -3 -10 2 0 4 -11 13 -25 20 -14
6 -23 7 -19 2 3 -5 -2 -6 -10 -3 -9 3 -16 10 -16 14 0 5 -9 6 -20 3 -11 -3
-20 -1 -20 5 0 6 -9 9 -20 7 -11 -2 -22 0 -25 5 -3 5 -14 7 -25 5 -11 -2 -20
1 -20 7 0 5 -6 8 -13 5 -8 -3 -20 -1 -28 3 -8 5 -19 4 -28 -3 -12 -10 -13 -9
-6 2 6 11 3 13 -13 9 -12 -4 -22 -3 -22 0 0 4 -36 7 -80 8 -55 1 -77 -2 -73
-10 5 -8 3 -8 -8 0 -19 14 -61 16 -53 2 4 -6 -1 -6 -14 1 -24 13 -35 14 -29 4
3 -5 -6 -8 -19 -8 -13 0 -24 4 -24 9 0 5 -6 4 -12 -1 -7 -6 -36 -10 -65 -9
-29 1 -49 -3 -45 -8 3 -5 -2 -7 -11 -3 -10 4 -17 2 -17 -5 0 -7 -5 -6 -15 2
-8 7 -15 8 -15 3 0 -6 -12 -10 -27 -11 -16 -1 -39 -4 -53 -8 -14 -3 -33 -6
-43 -6 -9 1 -15 -2 -13 -6 2 -4 -13 -7 -35 -6 -21 0 -39 -3 -39 -7 0 -4 -9 -6
-20 -4 -11 2 -22 0 -25 -5 -3 -4 -16 -7 -30 -6 -13 2 -22 -1 -19 -5 5 -8 -19
-13 -53 -12 -7 1 -13 -3 -13 -9 0 -5 -4 -6 -10 -3 -5 3 -10 1 -10 -5 0 -6 -4
-9 -9 -5 -9 5 -95 -29 -143 -55 -10 -6 -25 -10 -33 -10 -9 0 -13 -4 -10 -10 5
-9 -15 -15 -37 -11 -5 0 -8 -3 -8 -7 0 -4 -16 -14 -35 -21 -19 -7 -35 -17 -35
-22 0 -6 -4 -8 -9 -4 -5 3 -12 1 -16 -5 -4 -6 -11 -8 -16 -5 -5 4 -12 0 -15
-9 -3 -9 -12 -12 -21 -9 -11 4 -14 2 -9 -5 4 -7 2 -10 -7 -6 -8 3 -20 -2 -27
-11 -7 -8 -21 -15 -32 -15 -11 0 -27 -7 -35 -16 -9 -9 -26 -14 -39 -11 -15 3
-21 0 -17 -10 3 -8 -2 -13 -15 -13 -11 0 -23 -7 -26 -16 -5 -13 -9 -14 -20 -5
-11 9 -17 8 -28 -6 -7 -10 -20 -19 -28 -21 -8 -2 -16 -7 -18 -12 -2 -5 -10 -6
-18 -3 -8 3 -14 0 -14 -7 0 -7 -6 -10 -14 -7 -8 3 -17 -1 -20 -9 -3 -8 -9 -13
-13 -12 -4 0 -21 -5 -38 -12 -16 -7 -33 -13 -37 -12 -5 1 -8 -3 -8 -8 0 -6 -9
-10 -21 -10 -11 0 -18 -4 -14 -9 3 -6 -4 -8 -15 -6 -11 2 -20 -1 -20 -6 0 -6
-4 -7 -10 -4 -5 3 -10 2 -10 -3 0 -5 -6 -9 -12 -10 -39 -3 -54 -9 -65 -22 -7
-8 -13 -11 -13 -6 0 5 -7 3 -15 -4 -8 -7 -15 -9 -15 -5 0 4 -6 3 -12 -2 -7 -6
-21 -9 -31 -8 -10 2 -14 -1 -11 -7 5 -7 -2 -9 -20 -6 -14 3 -29 1 -32 -4 -3
-4 -10 -6 -15 -3 -5 4 -9 2 -9 -4 0 -5 -9 -8 -20 -6 -11 2 -20 -1 -20 -7 0 -6
-7 -5 -17 3 -14 12 -16 12 -8 0 6 -11 2 -13 -23 -8 -17 4 -34 2 -38 -4 -4 -7
-10 -7 -18 0 -9 7 -16 7 -24 -1 -7 -7 -12 -8 -12 -4 0 5 -6 3 -14 -3 -9 -7
-17 -8 -20 -2 -3 5 -15 7 -26 4 -11 -3 -28 1 -37 8 -12 10 -14 10 -9 2 4 -8 1
-13 -8 -13 -9 0 -16 4 -16 8 0 5 -10 8 -22 7 -26 -2 -88 24 -88 37 0 5 -4 7
-9 4 -5 -3 -17 5 -27 19 -10 13 -21 22 -25 19 -4 -2 -11 1 -15 7 -4 8 -3 9 4
5 7 -4 12 -3 12 3 0 5 -5 11 -10 13 -11 3 60 110 98 146 12 12 20 22 16 22 -4
0 5 11 19 24 14 13 23 27 20 30 -4 3 1 6 11 6 10 0 14 5 11 11 -4 6 2 13 14
16 11 3 18 9 15 14 -3 5 -1 9 4 9 6 0 19 15 31 33 11 17 21 28 21 24 0 -5 19
13 41 40 50 58 55 62 44 43 -4 -8 1 -6 12 5 11 11 19 23 17 26 -4 7 26 23 38
21 5 -1 7 1 5 6 -1 4 9 19 22 32 13 14 21 18 17 10 -4 -8 2 -4 13 10 11 14 21
22 21 18 0 -4 17 8 37 27 20 19 41 32 45 29 4 -3 8 2 8 10 0 10 6 13 15 10 8
-4 17 1 21 10 3 9 12 16 19 16 7 0 16 7 19 16 3 8 10 12 16 9 5 -3 10 -1 10 5
0 6 4 9 9 5 6 -3 15 4 21 15 6 11 15 18 21 15 5 -4 9 -1 9 4 0 6 3 10 8 10 21
-4 32 2 26 14 -4 6 -4 9 1 5 4 -4 17 -2 29 4 11 7 25 11 30 10 5 -2 12 2 16 8
4 6 13 12 21 14 8 1 24 7 35 14 12 6 24 8 28 5 3 -3 6 0 6 8 0 11 2 11 10 -1
7 -12 10 -12 10 -1 0 7 6 11 15 7 8 -3 15 -1 15 5 0 6 7 9 15 5 8 -3 15 -1 15
4 0 6 3 9 8 9 4 -1 9 0 12 1 9 3 34 8 75 15 22 4 46 12 54 18 12 10 13 9 6 -3
-8 -13 -6 -13 8 -2 9 8 21 11 27 7 5 -3 10 -1 10 5 0 6 6 10 13 9 24 -3 38 1
33 10 -3 4 6 6 19 3 16 -3 25 0 25 8 0 7 8 10 20 7 11 -3 18 0 17 6 -1 6 3 11
8 12 6 0 16 4 23 8 6 5 12 5 12 2 0 -4 13 3 30 15 16 12 34 18 40 15 5 -3 10
0 10 9 0 9 8 13 25 11 14 -1 25 3 25 9 0 6 5 4 10 -4 8 -13 10 -13 10 2 0 14
-8 17 -45 15 -25 -1 -46 -5 -48 -10z m-1467 -1061 c8 -11 10 -17 4 -13 -8 4
-11 -3 -10 -23 0 -17 5 -30 9 -30 5 0 7 -6 4 -14 -3 -7 0 -19 6 -26 9 -10 9
-11 0 -6 -7 4 -13 2 -13 -3 0 -6 4 -11 9 -11 5 0 7 -8 4 -19 -3 -10 0 -22 6
-25 8 -5 8 -13 1 -27 -6 -10 -7 -19 -2 -19 4 0 8 -9 9 -20 1 -13 -2 -18 -10
-13 -9 5 -9 3 -1 -8 15 -19 15 -71 0 -62 -6 3 -2 -3 8 -15 11 -12 14 -22 8
-22 -7 0 -9 -7 -5 -17 9 -23 8 -66 -1 -81 -4 -7 -2 -12 3 -12 6 0 11 -5 11
-11 0 -5 -5 -7 -12 -3 -7 5 -8 3 -3 -6 12 -20 12 -60 0 -60 -5 0 -3 -5 5 -10
8 -5 11 -10 5 -10 -5 0 -10 -21 -9 -48 0 -26 -4 -53 -9 -59 -6 -9 -5 -13 3
-13 10 0 10 -3 0 -15 -10 -12 -10 -15 1 -15 10 0 11 -2 2 -8 -6 -4 -10 -20 -9
-35 2 -15 0 -27 -4 -27 -5 0 -6 -10 -2 -22 4 -16 2 -19 -9 -13 -11 7 -12 6 -2
-7 7 -8 10 -18 6 -21 -7 -7 -15 -50 -14 -79 0 -10 -5 -18 -11 -18 -6 0 -6 -6
2 -15 9 -11 9 -15 1 -15 -7 0 -9 -4 -6 -10 3 -5 2 -10 -3 -10 -5 0 -7 -11 -4
-25 2 -14 0 -31 -5 -38 -5 -6 -9 -24 -8 -39 0 -16 -2 -28 -6 -28 -4 0 -6 -11
-4 -25 1 -14 -2 -25 -6 -25 -5 0 -8 -3 -8 -7 1 -5 1 -21 0 -36 -1 -20 -5 -26
-13 -21 -10 6 -10 4 0 -8 10 -13 10 -19 -3 -32 -12 -12 -13 -16 -3 -16 10 0
10 -2 -1 -9 -8 -5 -11 -16 -8 -25 4 -9 2 -16 -4 -16 -6 0 -9 -7 -5 -15 3 -8 1
-15 -4 -15 -5 0 -7 -7 -4 -15 4 -8 2 -15 -3 -15 -5 0 -9 -10 -10 -22 -1 -11
-8 -25 -15 -29 -10 -7 -10 -9 1 -9 11 0 10 -5 -4 -20 -10 -11 -15 -23 -12 -27
4 -3 2 -12 -4 -20 -6 -7 -8 -13 -4 -13 5 0 0 -10 -11 -22 -10 -12 -13 -18 -7
-14 9 5 11 2 7 -8 -3 -9 -10 -16 -16 -16 -5 0 -7 -4 -4 -9 3 -5 -5 -20 -19
-35 -13 -14 -21 -26 -17 -26 4 0 -2 -7 -12 -15 -11 -8 -17 -15 -13 -15 5 0 2
-6 -5 -14 -7 -8 -16 -12 -20 -9 -4 2 -5 -3 -2 -11 3 -9 1 -16 -5 -16 -6 0 -11
-7 -11 -16 0 -8 -4 -12 -10 -9 -5 3 -10 1 -10 -5 0 -6 -18 -28 -40 -50 -22
-22 -40 -43 -40 -48 0 -4 -20 -27 -45 -50 -25 -23 -43 -42 -40 -42 3 0 -5 -11
-17 -24 -13 -13 -26 -22 -30 -19 -4 2 -10 -3 -15 -11 -7 -13 -11 -13 -27 0
-11 8 -14 14 -8 14 7 0 12 13 12 30 0 17 5 30 13 30 8 0 7 4 -3 10 -8 5 -10
10 -5 10 6 0 11 10 12 22 1 11 7 24 14 28 6 4 8 13 5 19 -4 6 -3 11 3 11 6 0
7 7 4 17 -5 12 -3 14 7 8 9 -6 11 -4 6 4 -5 7 0 21 11 33 10 12 12 18 4 13 -8
-4 -6 3 5 21 11 15 14 25 8 21 -7 -4 -14 3 -16 18 -3 13 0 26 6 29 6 2 4 5 -6
5 -11 1 -15 7 -11 21 3 11 -1 28 -8 37 -11 13 -11 15 -1 9 16 -10 13 25 -3 36
-6 5 -4 8 5 8 13 0 13 2 1 9 -12 8 -12 12 -2 25 8 9 9 16 4 16 -5 0 -9 9 -10
20 -1 11 2 18 8 15 5 -4 6 3 1 17 -9 30 -8 70 2 87 5 8 4 16 -4 21 -9 6 -9 9
-1 15 9 5 9 11 -1 23 -11 13 -11 14 1 8 10 -7 12 -3 6 14 -6 17 -4 21 6 14 12
-6 12 -5 0 9 -7 9 -9 17 -4 17 6 0 8 11 6 24 -3 13 0 33 6 45 9 16 9 21 -1 21
-9 0 -10 3 -2 8 6 4 12 15 12 25 1 9 3 25 3 35 1 9 5 22 9 27 4 6 6 18 5 28
-2 9 1 17 6 17 4 0 6 7 3 15 -4 8 -1 15 4 15 6 0 9 9 7 20 -2 11 0 20 5 20 5
0 7 6 4 14 -3 8 -1 17 5 20 6 4 7 14 4 23 -5 12 -3 14 7 8 9 -5 11 -4 6 4 -4
6 -2 19 6 28 11 14 11 16 -2 8 -12 -6 -13 -5 -2 6 6 7 12 21 12 32 0 10 4 16
9 13 5 -4 8 2 6 11 -1 10 4 26 13 36 12 14 13 17 1 17 -11 1 -11 3 2 13 9 7
15 20 13 30 -1 9 2 15 7 11 9 -5 13 9 10 34 -1 6 4 12 10 12 7 0 9 3 6 7 -4 3
-2 12 4 20 6 7 9 13 5 13 -4 0 2 17 13 39 11 21 17 41 14 45 -4 3 -1 6 6 6 7
0 9 5 6 10 -3 6 -2 10 4 10 6 0 8 7 5 15 -4 8 -1 15 5 15 6 0 11 7 11 15 0 8
5 15 11 15 5 0 8 4 5 9 -8 12 4 42 13 37 4 -3 8 5 8 16 1 12 7 24 13 28 7 4
12 11 12 16 0 5 4 19 9 32 5 13 9 28 9 33 0 5 8 9 18 10 9 0 12 3 5 5 -8 4 -5
16 10 42 12 20 22 43 24 51 1 8 6 17 11 20 5 3 17 23 27 44 9 20 22 37 27 37
5 0 6 5 3 10 -3 6 0 13 9 16 9 3 12 12 9 21 -4 11 -2 14 5 9 8 -4 12 -1 12 10
0 10 1 15 3 13 1 -2 9 -13 17 -23z m-263 -1908 c-3 -8 -6 -5 -6 6 -1 11 2 17
5 13 3 -3 4 -12 1 -19z m1751 -385 c13 -16 22 -21 19 -11 -4 11 0 15 11 14 9
-2 18 -8 20 -14 2 -7 7 -10 11 -8 4 3 7 -4 7 -14 0 -10 -3 -17 -7 -14 -4 2 -9
-3 -13 -11 -7 -19 -32 -19 -40 0 -3 8 0 15 7 15 6 0 3 6 -8 14 -26 17 -55 17
-48 -1 3 -7 9 -10 14 -7 5 3 9 -2 9 -10 0 -11 -6 -13 -17 -9 -24 9 -43 29 -36
37 4 3 -2 6 -13 6 -18 1 -18 1 -1 11 9 5 22 7 27 4 6 -4 10 -3 9 2 -6 32 17
30 49 -4z m-412 -52 c-4 -5 3 -7 15 -4 18 5 20 3 14 -16 -4 -14 -2 -21 7 -21
7 0 19 -4 26 -9 12 -7 12 -12 1 -30 -17 -27 -25 -27 -34 2 -4 12 -8 25 -10 30
-1 4 -3 12 -4 18 0 6 -9 9 -20 6 -14 -3 -17 0 -14 14 3 11 10 19 15 19 5 0 7
-4 4 -9z m4 -71 c6 -11 8 -20 6 -20 -3 0 -10 9 -16 20 -6 11 -8 20 -6 20 3 0
10 -9 16 -20z"/>
<path d="M7333 4793 c-7 -3 -13 -12 -13 -20 0 -9 -3 -14 -6 -10 -6 5 -14 0
-47 -29 -7 -6 -18 -9 -26 -6 -8 3 -11 0 -7 -6 6 -11 -31 -28 -49 -23 -5 1 -7
-1 -3 -4 4 -4 -3 -16 -15 -26 -12 -10 -19 -18 -14 -19 4 0 1 -16 -8 -36 -8
-19 -14 -38 -13 -42 1 -4 -4 -18 -11 -31 -11 -19 -11 -22 1 -15 7 4 6 -1 -4
-12 -9 -10 -18 -26 -20 -34 -2 -8 -27 -39 -55 -68 -29 -29 -53 -57 -53 -63 0
-6 -5 -7 -12 -3 -6 4 -8 3 -4 -4 3 -5 1 -12 -6 -14 -6 -2 -8 -10 -4 -16 5 -8
18 0 42 26 18 20 34 41 34 45 0 5 5 5 10 2 6 -3 10 0 10 8 0 7 11 20 25 27 14
7 25 17 25 22 0 4 7 8 15 8 8 0 15 7 15 16 0 8 4 12 10 9 5 -3 15 -1 22 5 60
50 63 52 84 49 4 0 10 5 15 13 5 7 14 13 21 13 7 0 15 13 16 30 2 16 9 33 15
37 9 6 8 8 -2 8 -11 0 -11 3 -1 15 7 9 10 18 7 22 -4 3 -1 15 5 27 6 11 13 34
15 50 2 16 8 34 13 41 10 12 -3 16 -27 8z"/>
<path d="M2393 3795 c0 -14 3 -25 8 -25 4 0 6 10 4 21 -6 32 -12 34 -12 4z"/>
</g>
</svg>
