<svg width="108" height="79" viewBox="0 0 108 79" fill="none" xmlns="http://www.w3.org/2000/svg">
<g clip-path="url(#clip0_811_192)">
<path fill-rule="evenodd" clip-rule="evenodd" d="M102.809 44.3474C102.809 50.0916 99.7982 55.6132 94.3954 59.8959C96.2761 63.8839 101.923 74.7123 102.523 75.7876C97.6929 75.7876 82.3321 71.7328 77.8597 67.0874C74.9592 67.6374 71.9614 67.9177 68.9466 67.9177C50.245 67.9177 35.084 57.3656 35.084 44.3474C35.084 31.3304 50.245 20.7783 68.9466 20.7783C87.6495 20.7783 102.809 31.3317 102.809 44.3474Z" fill="#FEFEFE" stroke="#373435" stroke-width="7" stroke-miterlimit="2.61313"/>
<path fill-rule="evenodd" clip-rule="evenodd" d="M5.20117 26.7848C5.20117 32.5291 8.21208 38.0507 13.6149 42.3334C11.7342 46.3227 6.08697 57.1498 5.48899 58.2251C10.3188 58.2251 25.6796 54.1703 30.1519 49.5249C33.0524 50.0749 36.0502 50.3552 39.0651 50.3552C57.7666 50.3552 72.9276 39.8031 72.9276 26.7862C72.9276 13.7692 57.7666 3.21582 39.0651 3.21582C20.3635 3.21582 5.20249 13.7692 5.20249 26.7862L5.20117 26.7848Z" fill="#FEFEFE" stroke="#373435" stroke-width="7" stroke-miterlimit="2.61313"/>
</g>
<defs>
<clipPath id="clip0_811_192">
<rect width="108" height="79" fill="white"/>
</clipPath>
</defs>
</svg>
