<svg width="86" height="84" viewBox="0 0 86 84" fill="none" xmlns="http://www.w3.org/2000/svg">
<g clip-path="url(#clip0_811_117)">
<path d="M19.6249 68.8877H3.52608C1.57868 68.8877 0 70.4682 0 72.4178V80.4674C0 82.417 1.57868 83.9975 3.52608 83.9975H19.6249C21.5723 83.9975 23.151 82.417 23.151 80.4674V72.4178C23.151 70.4682 21.5723 68.8877 19.6249 68.8877Z" fill="#373435"/>
<path d="M82.33 68.8877H66.2312C64.2838 68.8877 62.7051 70.4682 62.7051 72.4178V80.4674C62.7051 82.417 64.2838 83.9975 66.2312 83.9975H82.33C84.2774 83.9975 85.8561 82.417 85.8561 80.4674V72.4178C85.8561 70.4682 84.2774 68.8877 82.33 68.8877Z" fill="#373435"/>
<path d="M19.6249 46.8154H3.52608C1.57868 46.8154 0 48.3959 0 50.3455V58.3952C0 60.3448 1.57868 61.9253 3.52608 61.9253H19.6249C21.5723 61.9253 23.151 60.3448 23.151 58.3952V50.3455C23.151 48.3959 21.5723 46.8154 19.6249 46.8154Z" fill="#373435"/>
<path d="M82.33 46.8154H66.2312C64.2838 46.8154 62.7051 48.3959 62.7051 50.3455V58.3952C62.7051 60.3448 64.2838 61.9253 66.2312 61.9253H82.33C84.2774 61.9253 85.8561 60.3448 85.8561 58.3952V50.3455C85.8561 48.3959 84.2774 46.8154 82.33 46.8154Z" fill="#373435"/>
<path fill-rule="evenodd" clip-rule="evenodd" d="M9.71944 22.6175L20.8497 31.202C22.3902 32.3876 24.1888 33.3504 24.1888 35.2848V37.6649C24.1888 39.6082 22.595 41.195 20.6627 41.195H4.57279C2.63167 41.195 0.583699 39.5548 1.04672 37.6649L4.47485 23.4554C4.92896 21.5656 8.18791 21.423 9.71944 22.6086V22.6175Z" fill="#373435"/>
<path fill-rule="evenodd" clip-rule="evenodd" d="M77.2534 22.6175L66.1321 31.202C64.5916 32.3876 62.793 33.3504 62.793 35.2848V37.6649C62.793 39.6082 64.3868 41.195 66.3191 41.195H82.409C84.3501 41.195 86.3981 39.5548 85.9351 37.6649L82.5069 23.4554C82.0528 21.5656 78.7939 21.423 77.2623 22.6086L77.2534 22.6175Z" fill="#373435"/>
<path fill-rule="evenodd" clip-rule="evenodd" d="M26.9744 6.9796L31.0258 20.4492C31.5867 22.3123 32.495 24.1397 31.373 25.7176L29.9929 27.652C28.8621 29.2298 26.6449 29.5953 25.0688 28.4721L11.9885 19.0942C10.4125 17.9621 9.70015 15.4304 11.1693 14.1646L22.2195 4.61729C23.6887 3.34254 26.4134 5.12541 26.9744 6.98851V6.9796Z" fill="#373435"/>
<path fill-rule="evenodd" clip-rule="evenodd" d="M59.6221 6.9808L55.5706 20.4504C55.0097 22.3135 54.1014 24.1409 55.2234 25.7188L56.6035 27.6532C57.7344 29.231 59.9515 29.5965 61.5276 28.4733L74.6079 19.0954C76.1839 17.9633 76.8963 15.4316 75.4271 14.1658L64.3769 4.6185C62.9077 3.35266 60.183 5.12662 59.6221 6.98972V6.9808Z" fill="#373435"/>
<path fill-rule="evenodd" clip-rule="evenodd" d="M35.6282 19.9344L31.737 4.78886C31.2562 2.90793 34.6932 0.108822 36.6343 0.0909928L49.6701 0.0107636C51.6112 0.0018492 55.8319 2.78313 55.2798 4.63732L50.7297 19.9344C50.1777 21.7975 49.3407 24.1241 47.3995 24.1776L39.6173 24.3826C37.685 24.4361 36.1179 21.8153 35.6371 19.9344H35.6282Z" fill="#373435"/>
<path fill-rule="evenodd" clip-rule="evenodd" d="M30.197 79.4446L29.9922 36.0228L35.0231 31.1377V79.4446H30.197Z" fill="#373435"/>
<path fill-rule="evenodd" clip-rule="evenodd" d="M56.5635 79.4446L56.7683 36.0228L51.7285 31.1377V79.4446H56.5635Z" fill="#373435"/>
<path fill-rule="evenodd" clip-rule="evenodd" d="M46.5784 79.4472H40.2475L40.1406 30.5252C40.2297 27.5032 46.5072 27.5923 46.5784 30.5252V79.4472Z" fill="#373435"/>
</g>
<defs>
<clipPath id="clip0_811_117">
<rect width="86" height="84" fill="white"/>
</clipPath>
</defs>
</svg>
