<svg width="104" height="79" viewBox="0 0 104 79" fill="none" xmlns="http://www.w3.org/2000/svg">
<g clip-path="url(#clip0_811_105)">
<path fill-rule="evenodd" clip-rule="evenodd" d="M32.4403 35.1184C32.701 35.4386 32.586 35.5911 32.724 35.8198C32.3713 36.3306 31.0987 37.3293 30.6004 37.619C26.9514 39.7766 16.5637 48.3536 16.3184 48.468L45.3731 48.224C46.5997 48.224 49.4055 47.82 51.598 47.9801L53.8136 48.1173C51.851 38.4196 51.805 43.398 51.4064 30.1018C40.2598 26.0915 44.5758 16.127 24.3832 16.127C20.8798 19.1232 3.72291 38.2976 0.564453 36.0332C4.19821 42.9101 27.1583 31.2454 32.4403 35.1107V35.1184Z" fill="#373435" stroke="#373435" stroke-width="0.00787996" stroke-miterlimit="2.61313"/>
<path fill-rule="evenodd" clip-rule="evenodd" d="M57.4739 24.9918C57.7192 24.2294 57.9338 21.9346 58.3938 21.6372L58.8844 21.9041C57.2515 21.6677 40.3707 16.1861 51.0113 12.4122C47.9985 12.3436 59.5437 12.0843 56.5539 9.70566C54.2847 7.89877 46.7259 2.92029 46.5803 0.678828C46.8946 0.58734 52.5139 0.81606 53.2268 0.81606L86.8812 0.953292C87.4715 2.50097 120.658 28.6666 91.1206 29.3604C90.3617 29.3756 69.4867 17.7261 72.8675 30.4048C73.0132 30.9538 74.1784 34.377 74.4314 34.7048C77.5132 34.2397 98.2578 48.2908 100.665 53.254C107.611 67.5414 93.8114 72.0243 87.1572 78.154C85.4707 78.52 76.4016 78.2989 75.704 78.2989L5.99565 77.8796C-3.7327 76.7817 6.40962 72.3521 10.235 72.3521C11.1396 72.2607 11.04 72.3598 11.6916 72.192L71.6026 63.9581C58.4321 60.7179 57.4662 35.5587 57.4662 25.007L57.4739 24.9918ZM76.1256 11.2915C76.5243 10.2241 78.7015 10.0335 80.9936 10.8721C83.2858 11.7108 84.8267 13.2508 84.4357 14.3258C84.0371 15.3932 81.8599 15.5838 79.5677 14.7451C77.2756 13.9065 75.7346 12.3664 76.1256 11.2915Z" fill="#373435" stroke="#373435" stroke-width="0.00787996" stroke-miterlimit="2.61313"/>
</g>
<defs>
<clipPath id="clip0_811_105">
<rect width="104" height="79" fill="white"/>
</clipPath>
</defs>
</svg>
