<svg width="100" height="77" viewBox="0 0 100 77" fill="none" xmlns="http://www.w3.org/2000/svg">
<g clip-path="url(#clip0_811_110)">
<path fill-rule="evenodd" clip-rule="evenodd" d="M30.1163 8.35673C28.4888 6.28087 46.8165 -1.17323 32.4032 0.477953C24.016 1.44016 17.7196 14.8962 16.79 21.6702C16.1634 26.2585 4.28049 36.7209 0.244297 38.8057C-0.0140906 42.4169 8.12958 54.0198 9.52547 56.7876C15.0051 48.2436 26.7365 48.7485 35.2068 51.0946C40.9716 52.6923 47.3125 47.6586 48.6965 39.9105C47.5025 39.0997 45.8186 38.6364 44.5741 38.3454L44.6573 38.3484C47.4016 38.0009 47.853 37.104 48.9281 35.6756C48.3401 28.8778 42.2873 24.1351 35.0524 24.5984C38.9876 20.414 56.3857 28.6313 51.6664 20.0279C49.4003 15.891 39.4093 15.7514 35.3435 15.7514C36.9354 11.5641 43.7366 10.3405 45.7859 11.5463C50.7606 10.4474 46.9442 1.75495 33.5971 6.78573C33.6149 6.78573 30.2113 8.25279 30.1252 8.35673H30.1163ZM41.2329 36.7417C41.8893 37.5733 42.6644 38.1197 44.5296 38.381L44.6098 38.3781C43.5287 38.6572 42.1031 39.0849 40.9864 39.7917C40.1905 41.9269 38.1323 43.4445 35.7206 43.4445C32.617 43.4445 30.1014 40.9291 30.1014 37.8257C30.1014 34.7223 32.617 32.2069 35.7206 32.2069C38.453 32.2069 40.728 34.1551 41.2329 36.7388V36.7417Z" fill="#373435" stroke="#373435" stroke-width="0.00300121" stroke-miterlimit="2.61313"/>
<path fill-rule="evenodd" clip-rule="evenodd" d="M69.9022 68.6428C71.5298 70.7187 53.202 78.1728 67.6153 76.5216C76.0025 75.5594 82.2989 62.1034 83.2285 55.3294C83.8552 50.7411 95.738 40.2786 99.7742 38.1938C100.033 34.5826 91.8889 22.9797 90.493 20.2119C85.0134 28.7559 73.282 28.2511 64.8117 25.905C59.047 24.3072 52.7061 29.341 51.3221 37.0891C52.516 37.8998 54.2 38.3631 55.4444 38.6541L55.3612 38.6512C52.617 38.9986 52.1655 39.8955 51.0904 41.324C51.6784 48.1217 57.7313 52.8645 64.9661 52.4012C61.0309 56.5856 43.6328 48.3682 48.3521 56.9716C50.6182 61.1085 60.6092 61.2481 64.6751 61.2481C63.0831 65.4355 56.2819 66.659 54.2326 65.4533C49.2579 66.5521 53.0743 75.2446 66.4214 70.2138C66.4036 70.2138 69.8072 68.7467 69.8933 68.6428H69.9022ZM58.7856 40.2578C58.1292 39.4263 57.3541 38.8798 55.4889 38.6185L55.4087 38.6215C56.4898 38.3423 57.9154 37.9147 59.0321 37.2079C59.8281 35.0726 61.8862 33.5551 64.2979 33.5551C67.4015 33.5551 69.9171 36.0704 69.9171 39.1739C69.9171 42.2773 67.4015 44.7926 64.2979 44.7926C61.5655 44.7926 59.2905 42.8445 58.7856 40.2608V40.2578Z" fill="#373435" stroke="#373435" stroke-width="0.00300121" stroke-miterlimit="2.61313"/>
</g>
<defs>
<clipPath id="clip0_811_110">
<rect width="100" height="77" fill="white"/>
</clipPath>
</defs>
</svg>
